HIERARCHY
ROOT Hips
{
	OFFSET	0.00	0.00	0.00
	CHANNELS 6 Xposition Yposition Zposition Zrotation Xrotation Yrotation
	JOINT LeftUpLeg
	{
		OFFSET	 0.126116	-0.065224	 0.014019
		CHANNELS 3 Zrotation Xrotation Yrotation
		JOINT LeftLeg
		{
			OFFSET	 0.000000	 0.569914	 0.000000
			CHANNELS 3 Zrotation Xrotation Yrotation
			JOINT LeftFoot
			{
				OFFSET	 0.000000	 0.544423	 0.000000
				CHANNELS 3 Zrotation Xrotation Yrotation
				JOINT LeftToeBase
				{
					OFFSET	 0.000000	 0.207117	 0.000000
					CHANNELS 3 Zrotation Xrotation Yrotation
					End Site
					{
						OFFSET	 0.000000	 0.207117	 0.000000
					}
				}
			}
		}
	}
	JOINT RightUpLeg
	{
		OFFSET	-0.124023	-0.065224	 0.008373
		CHANNELS 3 Zrotation Xrotation Yrotation
		JOINT RightLeg
		{
			OFFSET	 0.000000	 0.570047	 0.000000
			CHANNELS 3 Zrotation Xrotation Yrotation
			JOINT RightFoot
			{
				OFFSET	 0.000000	 0.544354	 0.000000
				CHANNELS 3 Zrotation Xrotation Yrotation
				JOINT RightToeBase
				{
					OFFSET	 0.000000	 0.207540	 0.000000
					CHANNELS 3 Zrotation Xrotation Yrotation
					End Site
					{
						OFFSET	 0.000000	 0.207540	 0.000000
					}
				}
			}
		}
	}
	JOINT Spine
	{
		OFFSET	 0.000184	 0.117403	 0.007763
		CHANNELS 3 Zrotation Xrotation Yrotation
		JOINT Spine1
		{
			OFFSET	 0.000000	 0.137269	 0.000000
			CHANNELS 3 Zrotation Xrotation Yrotation
			JOINT Spine2
			{
				OFFSET	 0.000000	 0.156879	 0.000000
				CHANNELS 3 Zrotation Xrotation Yrotation
				JOINT LeftShoulder
				{
					OFFSET	 0.080501	 0.160143	 0.002496
					CHANNELS 3 Zrotation Xrotation Yrotation
					JOINT LeftArm
					{
						OFFSET	 0.000000	 0.164363	 0.000000
						CHANNELS 3 Zrotation Xrotation Yrotation
						JOINT LeftForeArm
						{
							OFFSET	 0.000000	 0.364576	 0.000000
							CHANNELS 3 Zrotation Xrotation Yrotation
							JOINT LeftHand
							{
								OFFSET	 0.000000	 0.360812	 0.000000
								CHANNELS 3 Zrotation Xrotation Yrotation
								JOINT LeftHandIndex1
								{
									OFFSET	 0.000000	 0.086006	 0.000000
									CHANNELS 3 Zrotation Xrotation Yrotation
									JOINT LeftHandIndex2
									{
										OFFSET	 0.000000	 0.047237	 0.000000
										CHANNELS 3 Zrotation Xrotation Yrotation
										JOINT LeftHandIndex3
										{
											OFFSET	-0.004284	 0.038165	 0.000551
											CHANNELS 3 Zrotation Xrotation Yrotation
											End Site
											{
												OFFSET	-0.004284	 0.038165	 0.000551
											}
										}
									}
								}
							}
						}
					}
				}
				JOINT Neck
				{
					OFFSET	 0.000000	 0.176489	 0.000000
					CHANNELS 3 Zrotation Xrotation Yrotation
					JOINT Head
					{
						OFFSET	 0.000000	 0.077941	 0.001747
						CHANNELS 3 Zrotation Xrotation Yrotation
						End Site
						{
							OFFSET	 0.000000	 0.077941	 0.001747
						}
					}
				}
				JOINT RightShoulder
				{
					OFFSET	-0.080363	 0.159706	-0.000306
					CHANNELS 3 Zrotation Xrotation Yrotation
					JOINT RightArm
					{
						OFFSET	 0.000000	 0.164196	 0.000000
						CHANNELS 3 Zrotation Xrotation Yrotation
						JOINT RightForeArm
						{
							OFFSET	 0.000000	 0.365611	 0.000000
							CHANNELS 3 Zrotation Xrotation Yrotation
							JOINT RightHand
							{
								OFFSET	 0.000000	 0.360648	 0.000000
								CHANNELS 3 Zrotation Xrotation Yrotation
								JOINT RightHandIndex1
								{
									OFFSET	 0.000000	 0.069977	 0.000000
									CHANNELS 3 Zrotation Xrotation Yrotation
									JOINT RightHandIndex2
									{
										OFFSET	 0.000000	 0.052305	 0.000000
										CHANNELS 3 Zrotation Xrotation Yrotation
										JOINT RightHandIndex3
										{
											OFFSET	 0.009002	 0.042196	 0.000782
											CHANNELS 3 Zrotation Xrotation Yrotation
											End Site
											{
												OFFSET	 0.009002	 0.042196	 0.000782
											}
										}
									}
								}
							}
						}
					}
				}
			}
		}
	}
}
MOTION
Frames:    12
Frame Time: 0.03333334
 0.479782	 1.016143	-0.112972	 41.251180	-36.754260	-104.882500	-10.640940	 75.307530	-163.643600	 13.462900	-68.395460	 15.606840	 29.731570	 35.736680	-39.900360	 2.719419	 51.032940	-6.792896	 27.433150	 74.495590	 122.433600	-13.976750	-70.362380	-14.030940	-57.579320	 50.710580	 71.827660	-1.651526	 33.387080	 2.853396	 4.305811	 11.445500	-0.456012	-13.482980	 11.165610	 6.272786	 5.461362	 24.186940	 10.045230	-110.273200	 10.088490	 93.668630	 36.893490	 41.489340	-21.441100	 4.693171	-0.250843	 0.234092	 9.233485	-18.939310	 25.623520	-5.857236	 3.028215	-8.092762	-6.636707	 5.782041	 1.563104	 4.963066	-4.014628	-0.346955	 6.474679	-5.933242	 2.766386	 8.825489	-0.755791	-43.951790	 79.725060	 12.322890	-83.549000	-40.343710	 15.927080	 65.006290	-12.020120	-1.103990	 13.896540	 1.253903	 7.222779	 12.077060	-0.837895	 8.004157	-0.676092	 14.724700	 22.900560	-6.886585	-8.239867	-2.131385	 0.447455
 0.521156	 1.026070	-0.134116	 37.028210	-32.024920	-103.769000	-41.989450	 79.632910	-147.112700	 32.114610	-80.160930	 36.651720	 45.894070	 33.305270	-51.830280	 2.406073	 51.439370	-9.046944	 45.705380	 76.370960	 110.029200	-13.707790	-70.014180	-14.124910	-60.178390	 49.175520	 72.466690	-1.640919	 33.230160	 2.843003	 4.055393	 11.056650	-0.079583	-14.392860	 6.820903	 6.099979	 6.949258	 23.505700	 11.489790	-109.568200	 7.248522	 92.456340	 31.736570	 47.953820	-16.272450	 4.713809	-0.244668	 0.196547	 6.164484	-15.724660	 24.844680	-5.107911	 4.632901	-7.980404	-6.712037	 6.289914	 1.660681	 4.963066	-4.014628	-0.346955	 6.428354	-5.890106	 3.421693	 7.950201	 2.484179	-42.736310	 83.151480	 11.429120	-88.120480	-40.480450	 30.849370	 57.378990	-39.581180	-3.374332	 11.455540	 4.068628	 13.075170	 16.262520	-3.937604	 14.990150	-1.344981	 14.306580	 21.278680	-6.304814	-8.239867	-2.131385	 0.447455
 0.547436	 1.035230	-0.145393	 32.229450	-27.408040	-99.583270	-108.875400	 81.060970	-91.660820	 68.901070	-84.356180	 74.004400	 54.317050	 31.427510	-58.588690	 1.598303	 49.116240	-7.493011	 74.704130	 72.804580	 86.588330	-13.768390	-70.093730	-14.240860	-61.625670	 49.751250	 73.173020	-1.642227	 33.251480	 2.844303	 3.906176	 11.268480	-0.041340	-12.833750	 4.832405	 5.073580	 8.961897	 22.910240	 10.744940	-107.682000	 6.351659	 92.027860	 31.274180	 53.317410	-16.128360	 4.739916	-0.247098	 0.318009	 0.839937	-9.937295	 26.619880	-4.411137	 3.789949	-8.096487	-6.774482	 6.700309	 1.740373	 4.963066	-4.014628	-0.346955	 7.971059	-3.247889	 3.212508	 5.906455	 3.852393	-42.530070	 84.806230	 10.040030	-89.213210	-42.911230	 37.803590	 60.505870	-50.572500	-4.088347	 10.025750	 5.697292	 14.075070	 7.653638	-3.698918	 15.421550	-1.574674	 14.293880	 21.403700	-6.334694	-8.239867	-2.131385	 0.447455
 0.576351	 1.055550	-0.159463	 27.322160	-22.436090	-94.307170	-155.162300	 65.793080	-54.680030	 102.061000	-84.614060	 107.965000	 60.528840	 33.475460	-66.554670	 0.854174	 46.536540	-5.911734	 96.546460	 65.965240	 71.041980	-12.287310	-67.953610	-12.922010	-62.293180	 49.491410	 72.919460	-1.643671	 33.275000	 2.845737	 4.098314	 11.234480	 0.565077	-13.901290	-0.747237	 3.968386	 12.572820	 23.700330	 9.884643	-105.611500	 5.346144	 91.590410	 29.288250	 59.342800	-14.815500	 4.757827	-0.249508	 0.451964	-6.055282	-5.221785	 29.889930	-3.645138	 2.858462	-8.212516	-6.844091	 7.152878	 1.828878	 4.963066	-4.014628	-0.346955	 9.683920	-0.336845	 2.899205	 3.631796	 5.354827	-42.320470	 86.593800	 8.471699	-90.366800	-47.763570	 42.947830	 65.168690	-59.312820	-4.549880	 8.603989	 8.231311	 15.562640	 0.137936	-3.432975	 15.896310	-1.830757	 14.279950	 21.541600	-6.367646	-8.239867	-2.131385	 0.447455
 0.598644	 1.081981	-0.173801	 22.975000	-17.762090	-88.533690	-163.466200	 44.356000	-49.740790	 64.062990	-84.146130	 71.074130	 56.502270	 37.039540	-65.860020	 0.247752	 43.970290	-4.461506	 110.517300	 57.549810	 63.554230	-10.254960	-64.168530	-11.126480	-62.192530	 48.761790	 72.105520	-1.645102	 33.298290	 2.847159	 4.282849	 10.227420	 1.182330	-15.775040	-4.196621	 2.865808	 16.361920	 23.509360	 9.139072	-103.572200	 4.335768	 91.194080	 25.860440	 64.563930	-12.316220	 4.738380	-0.250090	 0.584388	-12.368220	-0.936128	 32.592510	-2.889087	 1.934742	-8.315036	-6.913776	 7.600869	 1.917143	 4.963066	-4.014628	-0.346955	 11.397020	 2.534663	 2.503094	 1.361280	 6.841096	-42.132370	 88.325420	 6.885050	-91.455630	-53.424920	 42.383660	 71.245410	-61.756020	-4.660489	 7.673354	 8.686016	 18.488010	-5.911789	-3.166855	 16.365250	-2.087174	 14.266210	 21.678150	-6.400268	-8.239867	-2.131385	 0.447455
 0.618363	 1.107759	-0.184285	 18.757630	-13.378400	-81.480320	-163.684200	 25.203380	-48.455150	 23.850110	-77.154950	 31.855320	 43.575600	 37.880450	-55.916300	-0.034316	 41.410500	-3.483375	 119.431700	 47.656760	 61.682970	-8.447742	-59.601840	-9.551517	-61.223340	 47.997790	 70.536200	-1.646736	 33.324560	 2.848737	 4.311297	 8.796668	 1.207013	-16.196930	-3.608284	 2.208671	 18.869350	 20.992820	 8.338169	-101.660300	 3.076727	 90.913350	 22.086170	 68.200390	-9.560080	 4.693630	-0.249429	 0.719214	-16.345410	 4.488096	 33.763450	-2.207676	 1.997694	-8.350272	-6.983655	 8.032646	 2.002866	 4.963066	-4.014628	-0.346955	 13.281330	 4.948896	 1.839266	-0.903198	 7.815979	-42.193440	 89.801410	 4.960246	-92.364400	-57.828340	 37.209170	 78.136860	-59.688870	-4.567522	 7.091771	 7.156182	 21.907500	-12.054480	-2.914761	 16.791490	-2.350797	 14.259020	 21.861580	-6.447683	-8.239867	-2.131385	 0.447455
 0.654392	 1.125294	-0.176647	 17.410630	-10.342170	-72.957570	-166.876200	 18.055340	-43.642330	 11.859060	-65.836720	 18.458670	 44.044340	 47.311600	-66.802800	 1.068052	 40.474000	-5.254377	 120.852000	 38.970090	 66.568600	-6.883084	-54.278330	-7.995714	-57.814550	 46.616000	 66.155230	-1.648539	 33.352000	 2.850244	 3.671113	 8.058560	 1.707467	-13.283730	-4.046904	 2.535986	 15.906460	 17.668810	 6.794327	-101.582800	 1.223881	 91.264930	 21.137670	 66.124730	-8.857936	 4.694991	-0.250382	 0.786998	-12.497740	 5.023318	 32.257650	-2.380279	 7.728317	-8.033087	-7.007662	 8.107695	 2.017970	 4.963066	-4.014628	-0.346955	 14.852120	 3.331656	 0.547344	-1.707993	 5.296687	-43.553100	 89.121190	 2.426498	-91.993110	-57.591640	 31.917410	 83.973240	-57.005340	-4.438025	 6.834630	 9.362705	 14.183410	-13.705630	-2.913486	 16.717650	-2.478662	 14.293900	 22.203020	-6.551672	-8.239867	-2.131385	 0.447455
 0.684227	 1.133493	-0.168642	 15.874810	-7.826744	-64.528760	-168.657500	 14.108680	-39.252850	 7.983641	-56.422620	 12.926660	 49.684220	 53.635910	-81.385600	 2.097591	 39.531180	-6.944732	 121.768100	 30.813810	 71.738820	-6.035519	-50.659520	-7.069839	-55.452320	 45.926770	 63.296810	-1.650309	 33.378910	 2.851722	 2.994264	 7.302247	 1.749013	-9.877734	-2.085121	 2.723301	 12.849480	 13.481370	 5.131502	-101.495800	-0.593040	 91.612140	 22.560710	 63.908410	-10.405070	 4.700492	-0.251360	 0.853733	-8.554021	 6.629752	 29.643240	-2.584435	 13.350510	-7.698843	-7.031231	 8.181297	 2.032816	 4.963066	-4.014628	-0.346955	 16.355200	 1.711965	-0.674790	-2.566223	 2.949938	-44.904170	 88.470540	-0.062941	-91.658490	-55.196820	 25.611520	 89.623330	-49.979210	-4.053462	 6.880659	 5.780380	 9.297119	-14.661940	-2.912403	 16.645220	-2.604025	 14.328860	 22.537850	-6.654134	-8.239867	-2.131385	 0.447455
 0.719428	 1.139728	-0.163557	 14.602400	-6.019002	-58.154000	-169.906600	 13.294150	-34.322920	 6.645393	-51.455020	 10.982250	 57.627620	 54.355590	-91.418280	 2.212608	 35.935420	-7.492128	 123.300400	 25.995980	 75.022630	-5.333500	-47.164020	-6.244886	-53.624080	 44.616840	 60.361350	-1.674035	 33.292210	 2.907448	 2.476746	 6.747799	 2.053864	-7.552961	-0.728406	 2.881079	 10.150170	 10.950460	 3.507612	-101.511800	-1.743934	 92.798230	 26.267360	 60.950750	-14.867010	 4.711175	-0.252111	 0.902894	-4.004984	 6.049204	 29.862370	-2.967465	 15.134150	-7.482005	-7.053641	 8.253632	 2.046683	 4.963066	-4.014628	-0.346955	 16.854400	-0.854778	-1.893937	-2.219758	 0.649345	-45.757320	 88.046300	-2.190524	-91.344410	-50.867690	 19.416370	 91.481220	-42.520280	-3.578659	 6.978208	 4.030787	 3.267958	-13.484720	-2.911362	 16.580820	-2.715518	 14.346880	 22.776750	-6.725063	-8.239867	-2.131385	 0.447455
 0.759986	 1.141818	-0.160079	 13.429920	-4.584200	-52.525760	-170.787500	 15.220170	-29.843240	 6.476449	-50.737400	 10.811240	 66.357760	 52.861700	-97.883700	 1.841492	 30.542000	-7.458895	 124.593900	 22.894720	 77.680760	-4.748806	-43.848560	-5.485320	-51.990660	 42.804340	 57.184360	-1.711911	 33.133050	 2.998446	 1.949769	 6.318710	 2.447791	-5.226635	 0.660324	 3.015893	 7.295498	 9.157260	 1.710738	-101.573400	-2.580279	 94.553750	 31.206320	 57.211960	-20.958100	 4.731682	-0.252908	 0.945194	 1.240832	 4.707492	 31.393230	-3.463890	 14.783220	-7.333893	-7.076830	 8.329906	 2.060885	 4.963066	-4.014628	-0.346955	 16.749660	-4.134672	-3.214342	-1.108938	-1.768955	-46.381960	 87.730760	-4.244624	-91.019360	-45.470410	 12.746950	 91.836360	-33.610180	-2.932388	 7.106259	 2.555805	-3.990282	-10.874020	-2.910316	 16.516950	-2.826066	 14.356000	 22.974720	-6.781953	-8.239867	-2.131385	 0.447455
 0.798926	 1.144641	-0.156829	 12.240190	-3.350402	-47.024780	-171.832600	 17.114250	-25.808850	 6.368424	-50.266040	 10.689840	 74.542790	 50.992740	-103.211300	 1.501253	 25.296780	-7.465136	 126.201200	 19.911850	 80.313490	-4.268395	-40.813880	-4.815380	-50.976200	 41.435070	 54.784580	-1.748415	 32.978120	 3.086725	 1.398154	 5.889082	 2.775097	-2.902732	 2.096706	 2.800352	 4.609794	 7.520875	-0.052188	-101.608700	-3.395574	 96.262410	 35.384470	 53.681160	-26.205140	 4.750539	-0.253314	 0.986660	 6.405900	 3.529458	 32.295670	-3.945327	 14.440530	-7.193006	-7.099420	 8.404126	 2.074739	 4.963066	-4.014628	-0.346955	 16.574120	-7.322479	-4.512019	-0.013869	-4.066351	-47.009640	 87.433980	-6.245084	-90.712960	-39.874050	 2.542002	 92.681020	-15.595040	-1.425043	 7.406630	-4.653679	-11.135660	-7.552104	-2.909423	 16.454810	-2.933610	 14.365090	 23.167370	-6.837428	-8.239867	-2.131385	 0.447455
 0.831820	 1.155018	-0.151834	 11.032210	-2.858267	-44.066900	-173.073400	 17.378360	-23.510000	 6.013984	-48.652200	 9.959089	 76.211160	 50.167850	-102.458500	 1.397960	 23.660700	-7.473993	 129.742200	 20.938640	 74.595660	-4.305405	-41.058690	-4.652712	-49.727480	 42.960960	 55.115230	-1.807884	 32.593910	 3.271185	 1.104646	 5.664383	 2.949280	-2.866529	 2.383064	 2.486309	 4.148635	 6.839165	-1.445476	-102.921400	-5.944203	 97.583530	 38.212070	 50.363700	-28.858010	 4.759197	-0.253253	 1.010557	 8.268952	 2.618243	 30.462430	-4.516258	 14.627200	-6.978807	-7.122990	 8.484586	 2.089596	 4.963066	-4.014628	-0.346955	 15.936390	-8.227800	-6.048268	 0.866660	-4.032068	-47.117490	 87.657750	-5.656671	-90.791640	-35.353530	-3.490509	 89.564830	-5.042358	-0.465917	 7.092905	-4.523778	-15.789400	-1.626012	-2.908421	 16.393110	-3.040403	 14.372430	 23.350570	-6.889756	-8.239867	-2.131385	 0.447455
